<?xml version="1.0" encoding="utf-8"?>
<svg xmlns="http://www.w3.org/2000/svg" width="1024" height="1024" viewBox="0 0 1024 1024">
  <path id="Circle" fill="#4472C4" d="M 491.00,64.21 C 491.00,64.21 526.00,64.21 526.00,64.21 526.00,64.21 538.00,64.96 538.00,64.96 561.91,66.00 585.60,69.41 609.00,74.58 779.43,112.21 911.79,244.57 949.42,415.00 954.59,438.40 958.00,462.09 959.04,486.00 959.04,486.00 960.00,497.00 960.00,497.00 960.00,497.00 960.00,525.00 960.00,525.00 960.00,525.00 959.04,538.00 959.04,538.00 957.15,581.47 947.93,625.13 932.95,666.00 887.71,789.37 789.11,889.11 665.00,933.31 608.25,953.52 556.96,960.70 497.00,960.00 497.00,960.00 486.00,959.04 486.00,959.04 446.62,957.32 407.40,949.47 370.00,937.00 318.26,919.75 272.60,894.63 230.00,860.55 142.80,790.79 84.64,687.34 68.73,577.00 68.73,577.00 65.00,546.00 65.00,546.00 65.00,546.00 65.00,537.00 65.00,537.00 65.00,537.00 64.00,527.00 64.00,527.00 64.00,527.00 64.00,499.00 64.00,499.00 64.00,499.00 64.96,486.00 64.96,486.00 67.53,426.98 83.54,368.13 109.26,315.00 162.78,204.42 261.95,120.41 379.00,84.02 404.39,76.13 430.62,70.57 457.00,67.28 457.00,67.28 478.00,65.09 478.00,65.09 478.00,65.09 491.00,64.21 491.00,64.21 Z" />
  <path id="Cloud" fill="white" d="M 684.00,342.00 C 681.51,328.74 664.28,308.89 655.17,299.01 617.51,258.19 563.99,238.36 509.00,239.00 509.00,239.00 499.00,240.04 499.00,240.04 499.00,240.04 490.00,240.04 490.00,240.04 482.20,240.91 474.61,242.60 467.00,244.35 431.97,252.39 398.53,267.97 373.17,294.09 364.66,302.85 356.88,312.63 350.42,323.00 347.85,327.14 341.89,339.08 338.79,341.41 336.86,342.86 325.40,345.17 322.00,346.14 313.56,348.56 303.54,352.97 296.00,357.45 256.81,380.77 230.54,425.26 230.28,471.00 230.28,471.00 230.28,485.00 230.28,485.00 230.66,488.21 231.77,494.92 230.28,497.83 230.28,497.83 213.18,516.00 213.18,516.00 206.18,524.02 198.40,538.05 194.45,548.00 191.90,554.43 187.85,570.16 187.00,577.00 187.00,577.00 187.00,585.00 187.00,585.00 186.44,589.10 185.86,590.44 186.04,595.00 187.29,627.18 197.74,654.54 218.87,679.00 227.48,688.96 246.85,705.53 260.00,708.00 260.08,699.54 261.91,690.98 264.69,683.00 265.77,679.92 269.81,671.75 269.19,669.04 268.44,665.75 260.76,660.48 258.00,657.91 249.65,650.15 244.70,644.02 239.31,634.00 229.67,616.10 226.00,589.78 230.90,570.00 232.10,565.13 233.20,563.39 235.14,559.00 243.47,540.14 257.75,523.34 277.00,515.00 277.00,515.00 273.88,502.00 273.88,502.00 271.00,489.85 270.98,484.19 271.00,472.00 271.05,437.19 292.31,406.52 322.00,389.43 332.57,383.34 341.16,380.05 353.00,377.35 356.22,376.62 368.60,374.86 370.28,373.26 371.67,371.93 372.89,367.95 373.79,366.00 373.79,366.00 380.27,353.00 380.27,353.00 384.33,345.07 393.10,334.67 399.32,328.15 420.35,306.14 451.57,292.79 481.00,287.00 488.89,285.45 496.95,284.01 505.00,284.00 505.00,284.00 520.00,284.00 520.00,284.00 528.11,284.01 536.07,285.41 544.00,287.00 574.05,293.01 606.17,307.48 626.58,331.00 634.32,339.92 640.31,347.40 645.74,358.00 647.28,361.01 651.64,372.67 653.51,373.98 654.92,374.97 661.78,375.55 664.00,375.92 670.53,377.00 678.84,378.75 685.00,381.06 710.78,390.76 732.41,410.04 744.22,435.00 753.22,454.01 753.56,469.60 751.92,490.00 751.53,494.74 750.32,500.38 749.12,505.00 748.58,507.05 747.22,510.83 747.78,512.82 748.63,515.80 754.41,518.63 757.00,520.35 763.88,524.95 769.31,529.92 774.91,536.00 790.83,553.31 796.26,574.08 796.00,597.00 795.79,614.44 786.76,635.75 775.68,649.00 772.97,652.23 766.29,658.87 763.00,661.49 760.88,663.18 756.49,665.72 755.68,668.30 754.81,671.04 758.29,677.99 759.25,681.00 759.25,681.00 765.00,708.00 765.00,708.00 778.15,704.25 796.07,690.06 805.16,680.00 838.75,642.82 848.42,592.86 830.58,546.00 826.35,534.89 819.11,522.69 811.00,514.01 811.00,514.01 793.99,496.91 793.99,496.91 792.87,494.48 793.73,491.59 793.99,489.00 793.99,489.00 795.00,471.00 795.00,471.00 795.00,471.00 794.17,462.00 794.17,462.00 793.42,454.21 793.05,447.74 791.11,440.00 783.17,408.41 761.61,380.39 735.00,362.02 720.53,352.03 701.70,343.45 684.00,342.00 Z" />
  <path id="M" fill="white" d="M 511.00,588.00 C 511.00,588.00 488.26,543.00 488.26,543.00 488.26,543.00 432.76,439.00 432.76,439.00 422.23,418.24 413.76,400.04 387.00,400.00 387.00,400.00 361.00,400.00 361.00,400.00 361.00,400.00 348.00,400.00 348.00,400.00 333.10,400.07 319.80,408.06 313.88,422.00 311.89,426.69 312.01,429.07 312.00,434.00 312.00,434.00 312.00,686.00 312.00,686.00 312.02,697.80 315.81,707.82 325.01,715.68 342.11,730.27 371.03,725.65 383.17,707.00 387.71,700.01 388.99,692.16 389.00,684.00 389.00,684.00 389.00,572.00 389.00,572.00 389.00,572.00 389.00,538.00 389.00,538.00 389.00,531.77 388.33,523.89 390.00,518.00 390.00,518.00 415.69,566.00 415.69,566.00 415.69,566.00 440.31,613.00 440.31,613.00 440.31,613.00 477.26,682.00 477.26,682.00 481.26,689.73 485.72,697.11 493.00,702.20 502.56,708.88 519.11,708.78 529.00,702.79 536.87,698.01 539.65,692.46 544.01,685.00 544.01,685.00 561.25,653.00 561.25,653.00 561.25,653.00 584.69,610.00 584.69,610.00 584.69,610.00 610.69,561.00 610.69,561.00 610.69,561.00 625.58,533.00 625.58,533.00 628.79,527.29 629.82,523.40 635.00,519.00 635.00,519.00 635.00,566.00 635.00,566.00 635.00,566.00 634.00,583.00 634.00,583.00 634.00,583.00 634.00,679.00 634.00,679.00 634.18,694.43 637.48,708.77 651.00,718.10 659.30,723.82 666.31,724.11 676.00,724.00 690.18,723.83 702.84,714.58 709.01,702.00 711.58,696.75 711.99,690.74 712.00,685.00 712.00,685.00 712.00,466.00 712.00,466.00 712.00,466.00 712.00,443.00 712.00,443.00 712.00,438.88 712.28,429.54 711.47,426.00 709.02,415.31 699.91,406.49 690.00,402.45 685.38,400.57 682.95,400.06 678.00,400.00 678.00,400.00 636.00,400.00 636.00,400.00 606.50,400.05 598.86,424.37 586.86,446.00 586.86,446.00 568.69,481.00 568.69,481.00 568.69,481.00 537.26,540.00 537.26,540.00 537.26,540.00 520.89,571.00 520.89,571.00 517.15,578.07 516.43,581.32 511.00,588.00 Z" />
</svg>
